<?xml version="1.0" encoding="UTF-8"?>
<!DOCTYPE svg PUBLIC "-//W3C//DTD SVG 1.1//EN" "http://www.w3.org/Graphics/SVG/1.1/DTD/svg11.dtd">
<!-- Creator: CorelDRAW X8 -->
<svg xmlns="http://www.w3.org/2000/svg" xml:space="preserve" width="40mm" height="40mm" version="1.1" style="shape-rendering:geometricPrecision; text-rendering:geometricPrecision; image-rendering:optimizeQuality; fill-rule:evenodd; clip-rule:evenodd"
viewBox="0 0 4000 4000"
 xmlns:xlink="http://www.w3.org/1999/xlink">
 <defs>
  <style type="text/css">
   <![CDATA[
    .str0 {stroke:#252423;stroke-width:7.62}
    .fil4 {fill:none;fill-rule:nonzero}
    .fil1 {fill:#252423}
    .fil2 {fill:#FF8201}
    .fil0 {fill:#2B2A29;fill-rule:nonzero}
    .fil3 {fill:#252423;fill-rule:nonzero}
   ]]>
  </style>
 </defs>
 <g id="Layer_x0020_1">
  <metadata id="CorelCorpID_0Corel-Layer"/>
  <g id="_2463590256032">
   <path class="fil0" d="M3325 2754m108 -53c0,9 -2,18 -7,27 -5,8 -11,15 -20,20 -8,4 -17,7 -27,7 -9,0 -18,-3 -27,-7 -8,-5 -15,-12 -20,-20 -4,-9 -7,-18 -7,-27 0,-10 3,-19 7,-27 5,-9 12,-15 20,-20 9,-5 18,-7 27,-7 10,0 19,2 27,7 9,5 15,11 20,20 5,8 7,17 7,27zm-11 0c0,-12 -4,-22 -12,-31 -9,-8 -19,-12 -31,-12 -11,0 -22,4 -30,12 -8,9 -13,19 -13,31 0,7 2,14 6,21 4,6 9,12 16,15 6,4 14,6 21,6 8,0 15,-2 22,-5 7,-4 12,-9 16,-16 3,-6 5,-14 5,-21zm-65 -30l26 0c6,0 10,1 12,2 3,1 5,3 7,6 1,3 2,6 2,9 0,3 0,6 -1,8 -1,2 -3,4 -6,6 2,1 4,3 5,4 0,2 1,4 1,8 0,8 1,12 1,13 0,1 1,2 3,4l-15 0c-1,-2 -1,-3 -2,-4 0,-1 0,-3 0,-6 0,-5 0,-8 -1,-10 0,-1 -1,-2 -2,-3 -1,0 -3,0 -7,0l-10 0 0 23 -13 0 0 -60zm13 12l0 14 11 0c4,0 7,-1 8,-2 2,-1 2,-3 2,-5 0,-3 0,-5 -2,-6 -1,-1 -4,-1 -8,-1l-11 0z"/>
   <path class="fil1" d="M768 3187c9,-1 16,-4 22,-7 12,-7 17,-17 17,-32 0,-11 -4,-20 -12,-26 -9,-7 -21,-13 -39,-18l-61 -21c-18,-6 -36,-14 -51,-23 -16,-9 -30,-20 -41,-32 -12,-13 -21,-28 -27,-44 -6,-17 -9,-36 -9,-57 0,-26 4,-48 14,-67 10,-20 23,-36 39,-49 17,-13 36,-22 57,-29 21,-7 44,-10 66,-10 23,0 44,2 62,6 18,4 34,9 47,15 14,6 26,14 37,22 10,8 24,17 32,26l-85 83c-10,-11 -22,-20 -35,-27 -12,-7 -29,-11 -50,-11 -17,0 -29,4 -38,11 -8,7 -12,15 -12,25 0,10 3,18 8,24 6,6 16,10 28,14l69 23c26,9 48,18 65,29 18,10 32,22 43,35 11,13 19,27 23,43 5,15 8,32 8,50 0,24 -4,46 -12,66 -7,20 -19,38 -35,52 -16,15 -37,26 -62,34 -20,7 -42,10 -68,12l0 -117zm463 -4c22,0 42,-4 58,-11 17,-8 31,-18 43,-31 12,-13 21,-29 27,-46 6,-18 9,-37 9,-58 0,-20 -3,-39 -9,-57 -6,-18 -15,-33 -27,-46 -12,-13 -26,-23 -43,-30 -16,-8 -36,-11 -58,-11 -21,0 -41,3 -57,11 -17,7 -31,17 -43,30 -12,13 -21,28 -27,46 -6,18 -9,37 -9,57 0,21 3,40 9,58 6,17 15,33 27,46 12,13 26,23 43,31 16,7 36,11 57,11zm0 120c-37,0 -73,-6 -106,-19 -34,-13 -63,-31 -89,-55 -25,-23 -45,-52 -60,-84 -15,-33 -23,-68 -23,-108 0,-39 8,-75 23,-107 15,-33 35,-61 60,-84 26,-23 55,-41 89,-54 33,-13 69,-20 106,-20 38,0 73,7 107,20 34,12 63,31 89,54 25,23 45,51 60,84 15,32 23,68 23,107 0,40 -8,75 -23,108 -15,32 -35,61 -60,84 -26,24 -55,42 -89,55 -34,13 -69,19 -107,19zm519 1c-32,0 -62,-4 -90,-13 -27,-8 -51,-21 -71,-39 -20,-17 -36,-38 -47,-64 -11,-26 -17,-57 -17,-92l0 -318 139 0 0 317c0,30 7,53 21,69 14,16 36,24 65,24 30,0 52,-8 66,-24 14,-16 21,-39 21,-69l0 -317 138 0 0 318c0,35 -5,66 -17,92 -11,26 -26,47 -46,64 -20,18 -44,31 -72,39 -27,9 -57,13 -90,13zm381 -266l0 259 -130 0 0 -526c0,-2 0,-4 2,-5 1,-1 4,0 8,4l326 268 0 -260 130 0 0 526c0,3 -1,5 -2,6 -2,1 -4,-1 -9,-4l-325 -268zm521 142c42,0 75,-13 99,-39 24,-26 36,-60 36,-104 0,-43 -12,-78 -36,-103 -24,-26 -57,-39 -99,-39 -62,0 -98,-1 -160,-1l0 -116 175 0c37,0 72,6 104,18 32,12 59,29 83,52 24,22 42,49 55,81 14,32 20,68 20,108 0,41 -6,77 -20,109 -13,32 -31,59 -55,81 -24,23 -51,40 -83,52 -32,12 -67,18 -104,18l-175 0 0 -118c63,0 98,1 160,1zm219 117c-5,0 -6,-3 -3,-8l230 -394 -191 0 0 -117 403 0c5,0 6,3 3,8l-230 394 211 0 0 117 -423 0z"/>
   <path class="fil2" d="M1361 2307c-494,-365 -755,-1012 -362,-1543 219,-297 639,-360 936,-140 7,4 13,9 19,14 30,9 60,19 89,30 993,-269 1348,887 862,1544 -415,561 -1000,498 -1544,95zm950 -1237c210,155 271,430 135,613 -135,183 -415,206 -626,50 -210,-155 -271,-430 -135,-613 135,-183 415,-206 626,-50z"/>
   <path class="fil1" d="M2260 1138c164,121 211,335 106,477 -106,143 -324,161 -488,40 -163,-121 -211,-335 -105,-478 105,-143 324,-160 487,-39z"/>
   <polygon class="fil3" points="963,3507 963,3424 974,3424 974,3496 1003,3496 1003,3507 "/>
   <path class="fil3" d="M1112 3423c12,0 22,4 30,12 8,9 13,19 13,30 0,12 -5,22 -13,30 -8,9 -18,13 -30,13 -12,0 -22,-4 -30,-13 -8,-8 -12,-18 -12,-30 0,-11 4,-21 12,-30 8,-8 18,-12 30,-12zm0 11c-9,0 -16,3 -22,9 -6,6 -9,14 -9,22 0,9 3,16 9,23 6,6 13,9 22,9 9,0 16,-3 23,-9 6,-7 9,-14 9,-23 0,-8 -3,-16 -9,-22 -7,-6 -14,-9 -23,-9z"/>
   <polygon class="fil3" points="1250,3507 1220,3424 1232,3424 1253,3483 1275,3424 1286,3424 1256,3507 "/>
   <polygon class="fil3" points="1400,3424 1400,3435 1366,3435 1366,3460 1400,3460 1400,3471 1366,3471 1366,3496 1400,3496 1400,3507 1356,3507 1356,3424 "/>
   <polygon class="fil3" points="1567,3474 1539,3424 1551,3424 1573,3461 1594,3424 1607,3424 1578,3474 1578,3507 1567,3507 "/>
   <path class="fil3" d="M1715 3423c12,0 22,4 30,12 8,9 12,19 12,30 0,12 -4,22 -12,30 -8,9 -18,13 -30,13 -12,0 -22,-4 -30,-13 -8,-8 -12,-18 -12,-30 0,-11 4,-21 12,-30 8,-8 18,-12 30,-12zm0 11c-9,0 -16,3 -22,9 -6,6 -10,14 -10,22 0,9 4,16 10,23 6,6 13,9 22,9 9,0 16,-3 22,-9 7,-7 10,-14 10,-23 0,-8 -3,-16 -10,-22 -6,-6 -13,-9 -22,-9z"/>
   <path class="fil3" d="M1876 3424l11 0 0 58c-1,7 -4,13 -8,17 -6,6 -12,8 -20,8 -8,0 -15,-2 -20,-8 -6,-5 -8,-12 -8,-20l0 -55 10 0 0 55c0,5 2,9 6,13 3,3 7,5 12,5 5,0 9,-2 12,-5 4,-4 5,-8 5,-13l0 -55z"/>
   <path class="fil3" d="M1972 3435l0 35 10 0c5,0 9,-2 12,-6 4,-3 5,-7 5,-12 0,-5 -1,-9 -5,-12 -3,-4 -7,-5 -12,-5l-10 0zm10 45l-10 0 0 27 -10 0 0 -83 23 0c7,1 12,4 17,8 5,6 8,12 8,20 0,8 -3,15 -8,20 -4,4 -7,6 -9,6l19 29 -13 0 -17 -27z"/>
   <polygon class="fil3" points="2165,3473 2165,3507 2154,3507 2154,3424 2165,3424 2165,3462 2191,3462 2191,3424 2201,3424 2201,3507 2191,3507 2191,3473 "/>
   <polygon class="fil3" points="2321,3424 2321,3435 2287,3435 2287,3460 2321,3460 2321,3471 2287,3471 2287,3496 2321,3496 2321,3507 2276,3507 2276,3424 "/>
   <path class="fil3" d="M2429 3467l-7 -20 -7 20 14 0zm-4 -43l30 83 -12 0 -10 -30 -22 0 -11 30 -11 0 30 -83 6 0z"/>
   <path class="fil3" d="M2535 3435l0 35 10 0c4,0 8,-2 12,-6 3,-3 5,-7 5,-12 0,-5 -2,-9 -5,-12 -4,-4 -8,-5 -12,-5l-10 0zm10 45l-10 0 0 27 -11 0 0 -83 24 0c6,1 12,4 16,8 6,6 9,12 9,20 0,8 -3,15 -9,20 -3,4 -6,6 -8,6l18 29 -13 0 -16 -27z"/>
   <polygon class="fil3" points="2655,3424 2655,3507 2645,3507 2645,3424 "/>
   <polygon class="fil3" points="2731,3424 2741,3424 2775,3483 2775,3424 2786,3424 2786,3507 2776,3507 2742,3447 2742,3507 2731,3507 "/>
   <path class="fil3" d="M2931 3495c-9,9 -19,13 -30,13 -11,0 -21,-4 -30,-13 -8,-8 -12,-18 -12,-30 0,-11 4,-21 12,-30 9,-8 19,-12 30,-12 11,0 22,4 31,13l-8 8c-7,-7 -15,-10 -23,-10 -8,0 -16,3 -22,9 -6,6 -9,14 -9,22 0,9 3,17 9,23 6,6 14,9 22,9 8,0 14,-2 19,-6l0 -25 11 0 0 29z"/>
   <polygon class="fil4 str0" points="963,3507 963,3424 974,3424 974,3496 1003,3496 1003,3507 "/>
   <path class="fil4 str0" d="M1112 3423c12,0 22,4 30,12 8,9 13,19 13,30 0,12 -5,22 -13,30 -8,9 -18,13 -30,13 -12,0 -22,-4 -30,-13 -8,-8 -12,-18 -12,-30 0,-11 4,-21 12,-30 8,-8 18,-12 30,-12zm0 11c-9,0 -16,3 -22,9 -6,6 -9,14 -9,22 0,9 3,16 9,23 6,6 13,9 22,9 9,0 16,-3 23,-9 6,-7 9,-14 9,-23 0,-8 -3,-16 -9,-22 -7,-6 -14,-9 -23,-9z"/>
   <polygon class="fil4 str0" points="1250,3507 1220,3424 1232,3424 1253,3483 1275,3424 1286,3424 1256,3507 "/>
   <polygon class="fil4 str0" points="1400,3424 1400,3435 1366,3435 1366,3460 1400,3460 1400,3471 1366,3471 1366,3496 1400,3496 1400,3507 1356,3507 1356,3424 "/>
   <polygon class="fil4 str0" points="1567,3474 1539,3424 1551,3424 1573,3461 1594,3424 1607,3424 1578,3474 1578,3507 1567,3507 "/>
   <path class="fil4 str0" d="M1715 3423c12,0 22,4 30,12 8,9 12,19 12,30 0,12 -4,22 -12,30 -8,9 -18,13 -30,13 -12,0 -22,-4 -30,-13 -8,-8 -12,-18 -12,-30 0,-11 4,-21 12,-30 8,-8 18,-12 30,-12zm0 11c-9,0 -16,3 -22,9 -6,6 -10,14 -10,22 0,9 4,16 10,23 6,6 13,9 22,9 9,0 16,-3 22,-9 7,-7 10,-14 10,-23 0,-8 -3,-16 -10,-22 -6,-6 -13,-9 -22,-9z"/>
   <path class="fil4 str0" d="M1876 3424l11 0 0 58c-1,7 -4,13 -8,17 -6,6 -12,8 -20,8 -8,0 -15,-2 -20,-8 -6,-5 -8,-12 -8,-20l0 -55 10 0 0 55c0,5 2,9 6,13 3,3 7,5 12,5 5,0 9,-2 12,-5 4,-4 5,-8 5,-13l0 -55z"/>
   <path class="fil4 str0" d="M1972 3435l0 35 10 0c5,0 9,-2 12,-6 4,-3 5,-7 5,-12 0,-5 -1,-9 -5,-12 -3,-4 -7,-5 -12,-5l-10 0zm10 45l-10 0 0 27 -10 0 0 -83 23 0c7,1 12,4 17,8 5,6 8,12 8,20 0,8 -3,15 -8,20 -4,4 -7,6 -9,6l19 29 -13 0 -17 -27z"/>
   <polygon class="fil4 str0" points="2165,3473 2165,3507 2154,3507 2154,3424 2165,3424 2165,3462 2191,3462 2191,3424 2201,3424 2201,3507 2191,3507 2191,3473 "/>
   <polygon class="fil4 str0" points="2321,3424 2321,3435 2287,3435 2287,3460 2321,3460 2321,3471 2287,3471 2287,3496 2321,3496 2321,3507 2276,3507 2276,3424 "/>
   <path class="fil4 str0" d="M2429 3467l-7 -20 -7 20 14 0zm-4 -43l30 83 -12 0 -10 -30 -22 0 -11 30 -11 0 30 -83 6 0z"/>
   <path class="fil4 str0" d="M2535 3435l0 35 10 0c4,0 8,-2 12,-6 3,-3 5,-7 5,-12 0,-5 -2,-9 -5,-12 -4,-4 -8,-5 -12,-5l-10 0zm10 45l-10 0 0 27 -11 0 0 -83 24 0c6,1 12,4 16,8 6,6 9,12 9,20 0,8 -3,15 -9,20 -3,4 -6,6 -8,6l18 29 -13 0 -16 -27z"/>
   <polygon class="fil4 str0" points="2655,3424 2655,3507 2645,3507 2645,3424 "/>
   <polygon class="fil4 str0" points="2731,3424 2741,3424 2775,3483 2775,3424 2786,3424 2786,3507 2776,3507 2742,3447 2742,3507 2731,3507 "/>
   <path class="fil4 str0" d="M2931 3495c-9,9 -19,13 -30,13 -11,0 -21,-4 -30,-13 -8,-8 -12,-18 -12,-30 0,-11 4,-21 12,-30 9,-8 19,-12 30,-12 11,0 22,4 31,13l-8 8c-7,-7 -15,-10 -23,-10 -8,0 -16,3 -22,9 -6,6 -9,14 -9,22 0,9 3,17 9,23 6,6 14,9 22,9 8,0 14,-2 19,-6l0 -25 11 0 0 29z"/>
  </g>
 </g>
</svg>
